<svg xmlns="http://www.w3.org/2000/svg" viewBox="0 0 5895.11 2575.23"><defs><style>.cls-1{fill:#c2de33;}.cls-2{fill:#3571b7;}.cls-3{fill:#fefefe;}.cls-4{fill:#fcfcfc;}</style></defs><g id="Layer_2" data-name="Layer 2"><g id="Layer_1-2" data-name="Layer 1"><path class="cls-1" d="M2905.07,0q1377.81,0,2755.62,0c13.43,0,26.87.24,40.3.47,7,.12,14.07.46,20.78,3,10.88,1.24,21.17,4.65,31.41,8.31a200.78,200.78,0,0,1,50.73,26.71,238.05,238.05,0,0,1,29.26,24.71c14.56,14.68,26.21,31.35,35.87,49.49,3.9,7.33,7.36,14.9,10.88,22.43a104.15,104.15,0,0,1,7.37,21.74c1.77,8.09,4.77,16,4.66,24.42a11.77,11.77,0,0,0,.55,3.78c2.66,8,2.54,16.38,2.59,24.7,0,6.39,0,12.79,0,19.19q0,599.64,0,1199.3c0,9-.08,17.91-.18,26.86a48.84,48.84,0,0,1-1.38,11.4,47.52,47.52,0,0,0-1.72,9.4c-.42,9.71-3.85,18.73-6,28a66.65,66.65,0,0,1-3.59,10.91c-7.21,17.12-15.14,33.87-25.86,49.12-10.33,14.7-21.78,28.52-35.61,40-18.26,15.15-37.62,28.68-60.37,36.51-14.48,7.2-30.41,9.51-45.82,13.57a35.14,35.14,0,0,1-7.62.79c-7.67.29-15.34.54-23,.67-7,.11-14.07,0-21.1,0q-2270.13,0-4540.25,0c-14.71,0-29.42-.3-44.13-.55-5.75-.1-11.5-.37-17-2.25a32.1,32.1,0,0,0-5.63-1.14c-4.42-.63-9-.72-13.26-1.86-8.64-2.31-17.46-3.9-25.94-6.8-9.67-3.31-19.29-6.77-29-9.88a164.37,164.37,0,0,1-16.05-6.3c-8.19-3.61-16.42-7.1-24.56-10.82-12.82-5.85-24.82-13.26-36.81-20.57a551.59,551.59,0,0,1-50.29-35.09,102.05,102.05,0,0,1-8.62-7.62c-10.1-9.8-20.1-19.69-30.19-29.5A224.26,224.26,0,0,1,794,1490.93c-5.86-8.36-10.92-17.29-16.21-26C771.15,1454,764.52,1443,758.15,1432s-12.53-22.28-19.19-33.2c-6.31-10.36-12.45-20.84-18.67-31.27-.66-1.09-1.47-2.11-2-3.24-5.5-10.84-12-21.14-18.13-31.6-15.28-25.85-30.22-51.91-45.73-77.63-6.59-10.94-12.68-22.19-19.22-33.17-15.38-25.8-30.07-52-45.8-77.59-1.67-2.73-3.25-5.52-4.74-8.34-6.6-12.43-14.2-24.27-21.32-36.39-1.94-3.31-4-6.55-5.78-10-6.25-11.88-13.59-23.14-20.3-34.76-7-12.18-14.55-24.06-21.3-36.4-3.68-6.73-7.78-13.21-11.68-19.81C489,972.76,474.06,946.67,458.5,921c-6.28-10.38-12-21.13-18.26-31.52-6.62-10.93-13.1-21.94-19.65-32.92-.66-1.1-1.42-2.14-2-3.27C412.83,841.83,406,831.05,399.46,820c-14.91-25.33-29.58-50.8-44.75-76-6.59-10.94-12.72-22.17-19.24-33.17C320.17,685,305.26,659,289.74,633.25c-6.6-10.93-12.59-22.24-19.24-33.16-12-19.65-22.86-39.93-35-59.48-6.75-10.84-12.79-22.12-19.21-33.18-3.53-6.08-7.19-12.08-10.75-18.14-15.57-26.43-30.92-53-46.69-79.3-6.56-10.95-12.73-22.16-19.25-33.16-15.3-25.84-30.15-51.94-45.74-77.62-6.3-10.37-11.93-21.14-18.24-31.52C69,256.77,62.49,245.75,56,234.77c-1.3-2.2-2.59-4.41-3.8-6.66-7.29-13.51-15.53-26.45-23.27-39.69-9.38-16-17.66-32.57-22.59-50.64-1.35-4.95-2.76-9.8-3.18-15a76.09,76.09,0,0,0-1.9-11.31A42.7,42.7,0,0,1,.32,96.27c1-7.59,2.49-15.12,3.93-22.64a23.76,23.76,0,0,1,2-5.37c2.43-5.21,4.94-10.39,7.42-15.57A45.18,45.18,0,0,1,21.4,41.75c.87-.94,1.73-1.89,2.59-2.84C40.69,20.46,56.93,12,82.75,4.82,85.82,4,89,3.55,92.07,2.63A43.81,43.81,0,0,1,103.41.86C113,.55,122.59.22,132.18.07c8.31-.13,16.63,0,24.95,0Z"/><path class="cls-2" d="M3930.82,2008.33a46.84,46.84,0,0,0-10.49-24.3c-6.18-7.69-14-13-23.77-15.14-1.87-.4-3.71-1-5.59-1.37a34.81,34.81,0,0,0-13.34-.11,152.6,152.6,0,0,0-25.83,7.17,249.13,249.13,0,0,0-34.73,16.11c-42.05,24.25-78.22,55.29-107.72,93.92-10.87,14.24-21,29-29.46,44.83a140.61,140.61,0,0,1-22.34,31c-8.38,8.8-16.48,17.87-24.89,26.64q-15.27,15.95-32.09,30.26a227.74,227.74,0,0,1-21.32,16.32,115.09,115.09,0,0,1-18.44,10.15,39.36,39.36,0,0,1-22.51,2.67,21,21,0,0,1-8.7-3.75,26.86,26.86,0,0,1-9.51-11.81c-2.44-5.88-4.53-12-4.54-18.52,0-3.19-.16-6.39-.21-9.58-.23-14.2,2.65-28,6-41.63,9.28-37.28,22.47-73.23,37.54-108.51a179.14,179.14,0,0,1,14.51-27q5.21-8,10.54-16c3.62-5.39,5.74-11.43,7.31-17.62a20.6,20.6,0,0,0-2.46-16.6,49.35,49.35,0,0,0-8.52-10.31,16.52,16.52,0,0,0-8.51-4.1,12.87,12.87,0,0,0-10.71,2.92,51.06,51.06,0,0,0-9.94,11.61,37.86,37.86,0,0,1-15.85,13.49,106.21,106.21,0,0,0-16.39,9.89,450,450,0,0,0-42.15,33.24c-24.67,22.34-48.35,45.67-70.81,70.24a459,459,0,0,0-29.66,35.19,28.34,28.34,0,0,1-3.78,4.32,8.79,8.79,0,0,1-3.35,1.58,2.22,2.22,0,0,1-3-1.57c-1.17-3.19-.51-6.38.31-9.4,5.15-19.11,10.33-38.22,16.59-57,4.25-12.72,8.59-25.41,13.62-37.84,3.83-9.5,8.27-18.69,14.29-27.05,3.82-5.29,8.26-9.69,14.71-11.73a18.38,18.38,0,0,0,5-2.73c2.19-1.6,2.95-4.06,3.15-6.68a6.79,6.79,0,0,0-.07-1.91c-1.87-8.89-5.25-17.08-11.3-24a27.79,27.79,0,0,0-9.08-6.92,17.22,17.22,0,0,0-13.07-.78,28.53,28.53,0,0,0-11.42,6.81,75.47,75.47,0,0,0-11.58,15.22,213,213,0,0,0-15.1,31q-8.59,21.35-15.55,43.26-7.8,24.66-15.1,49.47a24.91,24.91,0,0,1-5.56,9.89c-12.39,13.82-25.12,27.29-38.49,40.17a596.62,596.62,0,0,1-47.59,41.71,322,322,0,0,1-34.76,23.85,140.71,140.71,0,0,1-26.06,12,44.4,44.4,0,0,1-20.81,1.95,11.84,11.84,0,0,1-8-4.85,15,15,0,0,1-3.15-6.89,60.45,60.45,0,0,1,1.15-22.86c1.37-5.58,3.19-11,4.91-16.53,7.62-24.4,16.6-48.31,26.33-71.94,13.87-33.7,29-66.77,47.63-98.18,1-1.65,1.86-3.36,2.69-5.09a32.77,32.77,0,0,0,3-14.89,22.89,22.89,0,0,0-9.17-18.19,10.8,10.8,0,0,0-7.1-2.41,18.54,18.54,0,0,0-9.06,2.65c-7.24,4.28-13.35,9.89-19.19,15.82a295.72,295.72,0,0,0-39.88,51.43c-1.35,2.17-2.46,4.49-3.75,6.69a41.06,41.06,0,0,0-5.31,27.67c.2,1.27.36,2.54.56,3.8.92,5.82-.17,11.46-1.61,17.06-.16.61-.47,1.19-.67,1.79-3.37,10.35-3.35,10.37-10.32,18a793.38,793.38,0,0,1-64.46,63c-11.09,9.66-22.5,18.95-34.44,27.56a244.57,244.57,0,0,1-25.81,16.53,120.37,120.37,0,0,1-17.49,7.78,32.08,32.08,0,0,1-13.22,1.72,10.61,10.61,0,0,1-9.09-6.11,25.42,25.42,0,0,1-3.16-11,89.33,89.33,0,0,1,.26-13.4c1.1-8.23,2.42-16.46,4.25-24.55,2.26-10,4.9-19.85,7.78-29.65,14.08-47.83,30.42-94.85,50.65-140.46a91.11,91.11,0,0,0,4.15-10.71,26,26,0,0,0,.88-7.57,12.39,12.39,0,0,0-5-9.9,16.15,16.15,0,0,0-8.78-3.47c-11.13-1-21.54,1.69-31.6,6.22-7,3.17-13.42,7.38-19.76,11.71a390.11,390.11,0,0,0-40.46,32.27c-38.1,34.16-75.87,68.68-111.24,105.71a30.26,30.26,0,0,1-3,2.36,3.63,3.63,0,0,1-3.63.71,3,3,0,0,1-1.94-2.78,19.57,19.57,0,0,1,.73-7.56c6.93-25.25,14.13-50.43,21.91-75.43,13.48-43.3,28.27-86.16,45.7-128,18.44-44.32,39.1-87.49,66.69-127a55.74,55.74,0,0,0,4.5-8.43,12.46,12.46,0,0,0,.37-9.35,36.18,36.18,0,0,0-3.07-7,51.17,51.17,0,0,0-10.68-13.44c-5.9-5.07-14.16-6.11-20.89-.29a55.66,55.66,0,0,0-9.15,9.77c-3.31,4.69-6.43,9.53-9.46,14.41-11.47,18.5-21.1,38-30.06,57.76a1463,1463,0,0,0-65.08,171.88c-15.53,50.35-32.59,107.63-44.72,152.57-5,18.49-10.05,37-14.13,55.71-3.17,14.58-3.42,29.15-2.3,43.86a27.92,27.92,0,0,0,4.39,12.56,9.5,9.5,0,0,0,7.81,4.79,21.24,21.24,0,0,0,9.43-1.27,30.45,30.45,0,0,0,15.77-13.39,40.28,40.28,0,0,0,4.81-12.46,133.57,133.57,0,0,1,12.64-36,153.36,153.36,0,0,1,12.86-21.32c4.91-6.7,9.74-13.48,14.94-20,35.39-44.08,75.64-83.25,120-118.29,2.51-2,5.11-3.84,7.71-5.7a15,15,0,0,1,3.29-2,55.26,55.26,0,0,1,5.46-1.59c1.4-.37,4,1.71,4.18,3.17.79,5.25-.78,10.13-2.36,15-13.8,42.37-19.65,65.68-27.61,101.63-2.75,12.45-5.15,25-5.83,37.87-.24,4.47-.59,8.94-1.16,13.38-1.75,13.49-.34,26.83,1.87,40.1a40.75,40.75,0,0,0,7.35,17.53c5.88,8,14,11.06,23.59,9.33a90.24,90.24,0,0,0,25.41-8.34c6.26-3.2,12.59-6.26,18.7-9.72a334,334,0,0,0,32.15-20.86,568.16,568.16,0,0,0,80.77-70.53h0c1.09,0,1.79-4.37,3.24-.29a23.19,23.19,0,0,1-1.16,7.51c-3,9.08-5.7,18.25-7.94,27.57-3,12.34-1.19,24.13,3.53,35.57a90.4,90.4,0,0,0,11.42,19.88,43.77,43.77,0,0,0,10.89,10.66c5.53,3.6,11.57,5.38,18.19,4.45a96,96,0,0,0,23.95-6.48c15.32-6.41,30.28-13.52,44.14-22.79,9-6,17.86-12.32,26.43-19a627,627,0,0,0,53.18-46.81c2.71-2.65,5-5.81,8.58-7.48a17,17,0,0,1,1.44-3.11c1-1.42,2.29-2.67,3.45-4,3.68-1,5.34.37,4.79,4.21-.48,2.49-.93,5-1.46,7.45a8.3,8.3,0,0,1-2.7,4.8v0c.08,5.17-1.18,10.11-2.39,15.09-3.33,13.66-6.54,27.35-8.06,41.36-1,9,1.79,16.38,9.52,21.54,5.5,3.67,11.89,4,17.77-.62a47.27,47.27,0,0,0,7.93-8.31,155.86,155.86,0,0,0,11.38-17.74c34.27-59,76.49-111.75,125.78-158.87,6.94-6.63,14.12-13,21.26-19.39,2.38-2.14,5-4.06,7.48-6,1-.77,2.18-1.32,3.26-2a6.27,6.27,0,0,1,5.48.13c1.36,1,2.48,3.6,2.14,5-2.12,8.7-5.11,17.13-8,25.57a654.76,654.76,0,0,0-24,88.7c-2.1,10.64-3,21.53-4,32.35-1.29,13.51.68,26.86,3.63,40a69.53,69.53,0,0,0,10.65,24.47c6.83,9.84,15.84,16.51,27.51,19.54a44.88,44.88,0,0,0,19,.72c10.71-1.86,21.18-4.61,31.1-9.35a187.31,187.31,0,0,0,26.48-15.39,256,256,0,0,0,33.72-28.38c5.9-5.85,11.54-12,17.34-17.91a3.37,3.37,0,0,1,1.75-.73,3.79,3.79,0,0,1,1.8.13c.5.17,1.29.6,1.31.94.39,7,.4,14.06,1.08,21a51.72,51.72,0,0,0,10.47,26.39,38.19,38.19,0,0,0,5.32,5.47c4.6,4.05,10.17,5.36,16.07,4.83a45.26,45.26,0,0,0,14.75-3.92c10-4.49,19.09-10.34,27.93-16.67a384.16,384.16,0,0,0,45.55-38.15c16.91-16.57,33-33.89,48.75-51.58,3.82-4.31,7.63-8.63,11.6-12.79a20.27,20.27,0,0,1,4.64-3.23c.39-.23,1.26.16,1.8.46a2.08,2.08,0,0,1,1,1.24,43.52,43.52,0,0,1,.36,5.7c-.17,9.63-2.48,19-3.51,28.53-1.36,12.74-4.15,25.21-6.4,37.79-2.7,15.1-6.33,30-9.59,45-4.61,21.22-9.68,42.34-15.72,63.2-6.94,23.94-15.15,47.43-25.89,70-11.87,25-26.35,48.2-44.32,69.23a225.65,225.65,0,0,1-30.13,29.48,158.44,158.44,0,0,1-34.08,21.21,82.84,82.84,0,0,1-31.44,7.7c-11,.38-21.71-.75-31.83-5.42a63.1,63.1,0,0,1-14.55-9.17c-3.42-2.89-6.61-6.05-10.06-8.89a90.19,90.19,0,0,0-9.28-6.77,21,21,0,0,0-11-3.09,29.1,29.1,0,0,0-13,2.9,58.71,58.71,0,0,0-20.85,16.55,31.29,31.29,0,0,0-5.81,12,10.89,10.89,0,0,0,.37,5.62,21.53,21.53,0,0,0,6,9.66c1.42,1.29,2.79,2.65,4.33,3.79a58.64,58.64,0,0,0,32,11.62c8.94.55,17.89.49,26.48,3.67,2.34.87,5,.92,7.55,1.18,5.73.58,11.47,1,17.2,1.57,11.62,1.12,23.08-.4,34.21-3.33a231.31,231.31,0,0,0,69.59-31.29,155.29,155.29,0,0,0,25.16-20.65c7.61-7.78,14.93-15.8,21.85-24.2,21.68-26.3,39.21-55.17,53.68-86,18.84-40.07,32.11-82,42-125.08,3.28-14.31,6.05-28.75,9.08-43.12q7.11-33.75,14.27-67.5c3.18-15,6.48-30,9.59-45,2.73-13.14,5.32-26.3,7.88-39.47a23.91,23.91,0,0,0-.57-11.39,19.29,19.29,0,0,1-.86-3.72,6.84,6.84,0,0,1,1.69-5.27c2.55-2.94,5.91-4.86,8.91-7.23a61.09,61.09,0,0,0,13-14A39.17,39.17,0,0,0,3930.82,2008.33Zm-36.76,31.05a29.52,29.52,0,0,1-8.39,12.62,13.35,13.35,0,0,1-3.1,2.2,37.41,37.41,0,0,1-7.08,2.84c-8.57,2-14.73,7.29-20,13.93-2,2.5-3.7,5.2-5.5,7.83-3.59,5.27-7.13,10.57-10.74,15.83a419.65,419.65,0,0,1-43.09,53.68c-9.72,10.12-19.23,20.46-29.16,30.39-7.22,7.2-14.86,14-22.5,20.76A117.33,117.33,0,0,1,3726,2212.9a37.86,37.86,0,0,1-10.69,4c-2.78.65-6.57-1.19-8-3.81a22.43,22.43,0,0,1-3-9c-.15-1.9-.2-3.82-.37-7.29.37-2.9.75-7.35,1.52-11.73a176.84,176.84,0,0,1,10.9-36.59,294.88,294.88,0,0,1,24.48-47.53c19.7-30.73,46-54.41,77.41-72.63a131.54,131.54,0,0,1,19.08-8.81,79.47,79.47,0,0,1,24.24-5,45.69,45.69,0,0,1,17,2c6.86,2.27,12.45,6.38,15.16,13.54A13.37,13.37,0,0,1,3894.06,2039.38Z"/><path class="cls-2" d="M2299.56,1979.63c-4.16-8.19-11-12.19-19.79-13.25a35.85,35.85,0,0,0-15.14,1.59,79.53,79.53,0,0,0-22.06,11.34,192.62,192.62,0,0,0-21.92,18.61,517.42,517.42,0,0,0-41.41,45.28c-17.86,21.76-34.65,44.32-50.72,67.42-3.28,4.72-6.72,9.34-10.23,13.88a6.18,6.18,0,0,1-3.21,1.81,2.19,2.19,0,0,1-2.92-1.49,10,10,0,0,1-.42-3.74,418.33,418.33,0,0,1,15.32-63.26c4.07-12.77,8.81-25.34,16.1-36.77a51.41,51.41,0,0,0,4.05-8.66,23,23,0,0,0,1.37-5.55,30.71,30.71,0,0,0-6.59-23.34,24.7,24.7,0,0,0-4.1-4,10.43,10.43,0,0,0-7.1-2.39,17.06,17.06,0,0,0-5.65.8c-3.32,1.36-5.89.89-8.68-1.41-2-1.63-4.72-1.75-7.33-1.13-3.73.9-7.51,1.59-11.18,2.68-18.4,5.44-37.17,9.33-56,13-11.27,2.21-22.69,3.76-34,5.52-5.68.89-11.4,1.57-17.09,2.4a172.33,172.33,0,0,1-22.92,1.86c-3.64,0-5.58-2.55-4.61-6.34.79-3.1,1.42-6.25,2.44-9.27,8-23.66,17.47-46.64,29.75-68.43a296.4,296.4,0,0,1,35-50.26,202.58,202.58,0,0,1,26.22-25.26,131.19,131.19,0,0,1,31.05-18.83c8.29-3.47,16.75-6.25,25.82-6.79,3.19-.18,6.39-.39,9.54-.87a25.44,25.44,0,0,0,10.72-4,49.73,49.73,0,0,0,17.15-20.22c3.6-7.75-1.65-16.83-7.52-19.51a45.66,45.66,0,0,0-30-3.12c-8.73,2-17.32,4.49-25.39,8.5-5.15,2.55-10.4,4.91-15.43,7.67-40.51,22.16-74.2,52-100.68,89.88a402,402,0,0,0-34.17,59.85c-8.41,17.94-15.58,36.39-22.37,55-1.09,3-2.16,6-3.36,8.95-1.56,3.81-4.2,6.49-8.51,6.68-7.73.34-15.22,2-22.64,4a32,32,0,0,0-13.37,7.23,19.8,19.8,0,0,0-5.35,7.83,8.89,8.89,0,0,0,.54,7.4,16.86,16.86,0,0,0,6.43,7c3.87,2.23,7.88,4.22,12.44,4.81,3.79.5,7.55,1.21,11.32,1.85,1,.18,3.28,3.3,3.37,4.44.38,5.16-.64,10.18-1.7,15.16-2.13,10-4.55,19.93-6.68,29.92a17.1,17.1,0,0,1-4.42,8.32c-15.69,16.86-32,33.06-49.31,48.31a508.25,508.25,0,0,1-48.18,38,350.35,350.35,0,0,1-41.08,24.62,226.42,226.42,0,0,1-37.22,15.12c-12.92,3.84-26,6.72-39.58,6.16a40.34,40.34,0,0,1-14.87-3.29c-10.93-4.8-16.75-13.4-18.78-24.82a78.88,78.88,0,0,1-.68-19.12c.9-13.54,4.38-26.43,9.33-39a15.72,15.72,0,0,1,2.1-3.15,4.33,4.33,0,0,1,5-1.22c2.2,1.29,4.54,2.37,6.65,3.8a21.63,21.63,0,0,0,10.89,3.27,97.85,97.85,0,0,0,30.46-2.53,123.16,123.16,0,0,0,41.53-19.15,181,181,0,0,0,27.24-24.12,111.93,111.93,0,0,0,23.7-39.08c5.56-15.25,7.74-31,5.32-47.15a33.81,33.81,0,0,0-2.93-9.06,33.07,33.07,0,0,0-20.68-18.68c-2.42-.78-4.92-1.32-7.4-1.92-1.85-.44-3.76-.69-5.59-1.24a9.63,9.63,0,0,1-5.67-4.88c-1.21-2.22-1.76-4.78-2.8-7.11-2.24-5.05-6.49-7.8-11.57-9.27a20.21,20.21,0,0,0-11.38.08,60.9,60.9,0,0,0-15.65,7.11,137.23,137.23,0,0,0-22.26,18.16,343.44,343.44,0,0,0-52.26,66,437.54,437.54,0,0,0-36.45,75.89c-6.41,17.37-11.85,35.07-14.24,53.61a93,93,0,0,0,.28,28.6c1.13,6.31,2.28,12.56,4.68,18.54a8,8,0,0,1,.53,3.75,5.64,5.64,0,0,1-1.37,3.43c-6.86,5.94-14.95,9.62-23.35,12.88a49.56,49.56,0,0,1-14.89,3.26c-12.57.84-24-2.46-34.63-9.1a85.57,85.57,0,0,1-16.42-13.18c-4.86-5.07-9.67-10.24-14-15.74-30.16-38.13-58.43-77.63-85.41-118.06a93.4,93.4,0,0,1-4.59-8.4c-1-1.81,0-5.48,1.5-7.13a23.26,23.26,0,0,1,7.86-5.33c13.47-5.88,26.66-12.35,39.49-19.52a295.1,295.1,0,0,0,33.85-21.75,171.34,171.34,0,0,0,26.82-24.59,97.31,97.31,0,0,0,13.8-20.67c4-8.15,6.46-16.67,6.35-25.81-.06-5.11-.15-10.23-.59-15.32a55.92,55.92,0,0,0-1.87-9.37c-3-11.4-9-21.09-17-29.59a97.34,97.34,0,0,0-29.43-21.14c-14-6.59-28.51-11.25-44-12.41-2.55-.19-5.1-.41-7.64-.63-1.28-.11-2.55-.24-3.82-.37-4.94-.53-6.7-1.88-7.18-7a22.27,22.27,0,0,0-6.23-13.66,32.34,32.34,0,0,0-7.81-5.47,28.35,28.35,0,0,0-16.63-3.44,14.12,14.12,0,0,0-8.55,3.83,29.16,29.16,0,0,0-5.88,7.51c-1.87,3.33-3.3,6.91-5,10.33a32.78,32.78,0,0,1-3,4.84,10.56,10.56,0,0,1-6.17,4.25c-1.87.41-3.77.69-5.65,1-12.55,2.39-25.28,3.86-37.69,7-11.77,3-23.45,6.28-34.33,11.85-6.29,3.22-12.13,7.07-16.92,12.38a25.06,25.06,0,0,0-5.86,11.89,8.28,8.28,0,0,0,.11,3.77c2.51,9.11,8.4,15.6,16.26,20.49a6.12,6.12,0,0,0,1.78.7c5.85,1.48,11.43,1.2,16.3-2.87,2.45-2,4.91-4.08,7.16-6.34s4.26-4.76,6.31-7.22a42.4,42.4,0,0,1,18.92-12.64,89.82,89.82,0,0,1,18.57-4.55,5.3,5.3,0,0,1,5.53,6.09,61.63,61.63,0,0,1-2,7.37q-12.54,34.17-25.19,68.3c-6.18,16.77-11.87,33.73-18.63,50.29-1.69,4.14-3.2,8.36-5.15,12.38a19.29,19.29,0,0,1-7.38,8.58,44.08,44.08,0,0,0-6.23,4.45,19.34,19.34,0,0,0-5.44,7.77c-1.67,4.27-2.45,8.56-1.29,13.12.78,3.09,1.48,6.22,2,9.37a29.16,29.16,0,0,1-1.15,13.27c-.19.6-.42,1.2-.63,1.81q-16.75,48.93-33.54,97.85c-.62,1.8-1.59,3.48-2.33,5.24a12.63,12.63,0,0,1-8.18,7.49c-1.21.38-2.52.47-3.76.78a70.25,70.25,0,0,0-19.46,7.89,26.8,26.8,0,0,0-4.49,3.54c-3.09,2.92-3.77,6.59-2.64,10.54a26.74,26.74,0,0,0,8.24,12.68,65.54,65.54,0,0,0,23.26,13c8.89,3,17.65,3.43,25.92-1.44,7.38-4.35,15.45-5.93,23.71-7,3.8-.48,7.65-.69,11.48-.85,8.4-.34,16.39-2.79,24.37-5a47.32,47.32,0,0,0,13.79-6.6,17.84,17.84,0,0,0,3.92-4.08,2.64,2.64,0,0,0,.32-3.48c-1-1.63-1.79-3.38-3.67-4.26-2.3-1.08-4.49-2.51-6.89-3.27-9.73-3.11-19.48-6.2-29.52-8.22a53.8,53.8,0,0,1-5.5-1.59,7.81,7.81,0,0,1-5.38-9c.43-1.86.79-3.75,1.36-5.57,7.42-23.77,15.26-47.41,24.05-70.71,4.29-11.36,8.48-22.74,12.84-34.07,1.64-4.23,6.1-6.69,10.73-6.59a23.51,23.51,0,0,1,18.4,8.78c2.45,2.94,4.83,6,7.06,9.07,5.2,7.29,10.28,14.65,15.41,22,10.63,15.19,21.19,30.42,31.89,45.56a591.69,591.69,0,0,0,38.11,48.09,258.13,258.13,0,0,0,21.42,22,150.08,150.08,0,0,0,18.11,14.17c12,7.86,25,12.77,39.43,13.41a76.18,76.18,0,0,0,28.29-4c16.08-5.52,29.82-14.47,40.81-27.52a69.4,69.4,0,0,1,5.22-5.49c.32-.31,1.26-.08,1.87.07,1.92.5,3.14,1.94,4.43,3.36a63.65,63.65,0,0,0,16.3,13.22c6.2,3.43,12.65,6.22,19.71,7a101.85,101.85,0,0,0,30.59-1,251.8,251.8,0,0,0,35.25-9,331.52,331.52,0,0,0,70.4-34.45,420.56,420.56,0,0,0,91.13-78.75c4.09-1.14,6.21-.31,4.42,4.43-1.13,4.32-2.36,8.62-3.38,13-9.88,42.25-21.18,84.14-32.23,126.1-7.47,28.38-16,56.45-26,84.09-7.78,21.63-16.24,43-26.72,63.46a239.26,239.26,0,0,1-18.77,31.13,134.49,134.49,0,0,1-19,21.49c-8.6,7.77-18.1,14.14-29.13,18-2.41.84-4.73,1.94-7.15,2.74a35.61,35.61,0,0,0-12.91,8c-6.6,6.11-12,13.17-17.27,20.46a37.92,37.92,0,0,0-5.4,12.18c-1.15,4.07.31,7.55,2.32,10.87a7.23,7.23,0,0,0,2.76,2.53c5.88,3,12.2,3.68,18.66,2.93a83.71,83.71,0,0,0,25.76-7,126.73,126.73,0,0,0,25.94-16.17,176.36,176.36,0,0,0,24.54-24.18,292.15,292.15,0,0,0,28.49-40.79,479,479,0,0,0,30.53-61.73c19.54-47.9,35.72-97,50-146.65,8.66-30,16.57-60.28,24.35-90.57,10-38.92,20.87-77.63,31.39-116.42,2-7.39,4-14.8,6.24-22.11a10.08,10.08,0,0,1,6.5-6.59,78.07,78.07,0,0,1,11.06-3.12c17.6-3.22,34.87-7.81,52.11-12.49,25.88-7,51.36-15.27,75.7-26.7,5-2.2,5.5.29,4.62,4.32-1.27,2.93-3,5.75-3.73,8.81-1.69,6.82-3.84,13.51-4.8,20.53-1.31,9.49-2.75,19-4.73,28.36-3.55,16.88-6.45,33.89-9.84,50.8-5,25.06-10.36,50-16.55,74.83-3.71,14.85-7.6,29.7-13.23,44a119.34,119.34,0,0,0-4,12.79,20.22,20.22,0,0,0,1.91,14.87,31.55,31.55,0,0,0,8.51,10.22,20.78,20.78,0,0,0,12.42,4.47,15.11,15.11,0,0,0,12.14-4.64,42.25,42.25,0,0,0,5.87-7.51c2.53-4.42,4.61-9.11,6.82-13.71,6.63-13.82,13-27.75,19.89-41.46a831.47,831.47,0,0,1,49.47-86.46,592,592,0,0,1,56.58-72.52,160.1,160.1,0,0,1,16.45-16.08,53.36,53.36,0,0,1,9.57-6.35,17.45,17.45,0,0,1,14.84-.83c3.56,1.36,6.87,3.37,10.29,5.08,2.29,1.14,4.52,2.42,6.89,3.33a6.87,6.87,0,0,0,3.74.11,19.88,19.88,0,0,0,10-5.39c8.9-8.81,14.25-19.59,17.2-31.58A23.66,23.66,0,0,0,2299.56,1979.63Zm-638.83,126.82a16.47,16.47,0,0,1,1.18-5.58,323.32,323.32,0,0,1,35.31-61.23,106,106,0,0,1,13.83-15.86,64.55,64.55,0,0,1,9-7.07c9-5.63,16.34-3.9,24.19,3.4a18.9,18.9,0,0,1,3.44,4.58c4.44,8.06,6.52,16.71,5,25.83a60.76,60.76,0,0,1-9.88,24.67c-11,15.81-25.87,26.24-43.8,32.54-10.67,3.76-14.2,4.16-27.69,4.49-1.15-.08-3.72-.14-6.22-.54a5.67,5.67,0,0,1-3.29-1.68A5.45,5.45,0,0,1,1660.73,2106.45ZM1355.61,2065a15.17,15.17,0,0,1-7.58.38c-1.82-.42-3.63-2.46-3.2-4,1.19-4.29,2.08-8.68,3.57-12.86,13.06-36.67,27-73,42.24-108.83,3-7,5.58-14.28,10.26-20.49a8.42,8.42,0,0,1,4.67-3.08,35.56,35.56,0,0,1,4.79-.77c16-.13,29.81,4.2,42.73,11.83a67.45,67.45,0,0,1,14.88,12,49,49,0,0,1,12.23,23.52c1.5,7,1.26,13.87-1.92,20.61a80,80,0,0,1-6.67,11.58,110.07,110.07,0,0,1-15.28,17.14,189.19,189.19,0,0,1-38.76,27.94A290.58,290.58,0,0,1,1355.61,2065Z"/><path class="cls-2" d="M5442.27,1991.3a14.37,14.37,0,0,0-1.35-3.55,29.49,29.49,0,0,0-15.86-13.26,70.08,70.08,0,0,0-35.91-3.47,136.06,136.06,0,0,0-31.32,8.67c-35.65,14.84-61.95,40-81,73.16a102.12,102.12,0,0,0-8.8,21.19,49.31,49.31,0,0,0-2.38,15.09c.07,5.74.56,11.48.88,17.22a9,9,0,0,1-2.43,7,617.25,617.25,0,0,1-65.25,59.32,419.93,419.93,0,0,1-40.93,28.42,311.21,311.21,0,0,1-39.13,20.2,194,194,0,0,1-40.3,12.08,75.08,75.08,0,0,1-24.84.68c-9.94-1.45-18.12-6.13-23.48-14.91a42.2,42.2,0,0,1-5.52-16.22,62.28,62.28,0,0,1,.2-19.13c1.95-11.33,4.21-22.62,8.44-33.38a45,45,0,0,1,2.75-5c.66-1.18,4.08-2.36,5.11-1.74,1.64,1,3.32,1.92,4.85,3.06a23.66,23.66,0,0,0,12.52,4.38,95.7,95.7,0,0,0,30.46-2.46,123.65,123.65,0,0,0,44.7-21.28,188.18,188.18,0,0,0,24.21-21.79,107.9,107.9,0,0,0,22.38-35.46c5.07-13.17,8.51-26.78,8.26-41.1a48.9,48.9,0,0,0-4.93-20.35,31.49,31.49,0,0,0-16.12-15.76c-3.5-1.52-7.05-3-10.93-3.45a31.56,31.56,0,0,1-5.64-1.08,10,10,0,0,1-5.8-4.72,28.14,28.14,0,0,1-2.12-5.28,16.56,16.56,0,0,0-8.53-9.86c-5.43-2.87-11.09-2.9-16.75-1.11a62.65,62.65,0,0,0-17.07,8.54,169,169,0,0,0-23.25,20,322,322,0,0,0-24,27.42,18.69,18.69,0,0,1-11.21,6.81c-5,1.09-10.14,1.45-15.12,2.59a105.5,105.5,0,0,1-20.94,2.31c-7.67.18-15.34,0-23,.13-9.71.16-19.07-2-28.34-4.42a40.93,40.93,0,0,1-15.42-7.46,11.81,11.81,0,0,1-4.36-6.15c-1.23-4.95-2.11-10-3.17-15a70.79,70.79,0,0,0-8.09-21.42,25.06,25.06,0,0,0-7.66-8.46,16.61,16.61,0,0,0-5.15-2.37,21.07,21.07,0,0,0-16.56,2.58,54.48,54.48,0,0,0-22.58,27.72,16.5,16.5,0,0,0-1,3.7,38,38,0,0,0,.68,15.24c2,7.41,4.63,14.63,9.38,20.86a65.86,65.86,0,0,1,4.44,6.23,11.48,11.48,0,0,1,1.44,7.39,44.64,44.64,0,0,1-3.12,11,266.44,266.44,0,0,1-23.46,43.89,444.67,444.67,0,0,1-81.85,93.53c-4.35,3.76-8.9,7.31-13.53,10.72a77.61,77.61,0,0,1-29.51,13.23c-5.31,1.18-12.2-2.27-14.36-7.22-2.08-4.74-3.59-9.61-3.39-14.83a97.53,97.53,0,0,1,1-13.37c1.65-9.43,3.44-18.83,5.9-28.12,8.85-33.48,20.17-65.93,37.53-96.08,3.82-6.63,7-13.63,10.2-20.6a62.94,62.94,0,0,0,5.71-31.72,122.78,122.78,0,0,0-5-24.36,31,31,0,0,0-4.31-8.51c-3.58-5.26-9-7.59-14.87-5.42a42.23,42.23,0,0,0-13.29,7.46,76,76,0,0,0-8.22,8c-15.19,17.9-25.8,38-29,61.56a11.41,11.41,0,0,0,1.52,7.38c1.28,2.19,2.9,4.19,4.15,6.4a8.71,8.71,0,0,1,1,3.67c.33,5.9-.81,11.48-4.39,16.31q-4,5.37-8.34,10.5a724,724,0,0,1-79.35,80.58,424,424,0,0,1-34.72,27.2A257.37,257.37,0,0,1,4557,2221a131.48,131.48,0,0,1-19.35,8.29,43.36,43.36,0,0,1-20.81,1.9,12,12,0,0,1-7.91-4.92,14.45,14.45,0,0,1-3-6.93,61.83,61.83,0,0,1,1.7-24.7c1.39-4.92,2.86-9.82,4.37-14.7,7.21-23.19,15.69-45.93,24.89-68.39,14.06-34.3,29.22-68.09,48.21-100a59.38,59.38,0,0,0,3.57-6.79c3.43-7.93,4.09-16,.93-24.23a6.08,6.08,0,0,0-.82-1.72,75.86,75.86,0,0,0-6.44-7.06,10.11,10.11,0,0,0-7.11-2.34,15.55,15.55,0,0,0-7.38,1.77,70.37,70.37,0,0,0-13.89,10.18,273.3,273.3,0,0,0-50.53,64.78c-.32.55-.59,1.13-.9,1.69a39.31,39.31,0,0,0-4.52,24.1c.29,2.54.73,5.07,1,7.61a34.58,34.58,0,0,1-1,11.42c-.58,2.47-1.57,4.85-2.34,7.28q-14.94,47.52-29.85,95c-1.71,5.48-3.24,11-4.43,16.66a51.9,51.9,0,0,0,.73,24.67,85.59,85.59,0,0,0,18.06,33.43,36.45,36.45,0,0,0,5.62,5.2c6.4,4.86,13.53,7,21.61,5.5a110.17,110.17,0,0,0,23.89-6.89c15.9-6.77,31.42-14.26,45.59-24.26,7.83-5.53,15.69-11,23.28-16.89a588.23,588.23,0,0,0,62.71-56.41c4-4.12,8-8.28,12-12.43,9-1.43,5.25,3.89,4.12,7.81-1.64,10.73-4.22,21.29-6,32a162.27,162.27,0,0,0-2,30.56c.15,7.81,2.29,15.17,5.22,22.27a37.88,37.88,0,0,0,9.89,14c6,5.33,13,8.26,21.08,7.35a108.42,108.42,0,0,0,26.11-5.84,158,158,0,0,0,25.92-12.29,303.53,303.53,0,0,0,31.48-21.86,482.48,482.48,0,0,0,75-73.9c22-26.79,41.17-55.38,55.92-86.83a41.9,41.9,0,0,1,4.71-8.28c1.05-1.33,3.24-1.92,5-2.43a10.1,10.1,0,0,1,3.77.18c8.25,1,16.49,2.13,24.75,3a112.06,112.06,0,0,0,24.9-.05c11.42-1.33,23-1.95,34-5.41a15,15,0,0,1,1.9-.25c1.89-.32,3.79,1.55,3.45,3.15a20.33,20.33,0,0,1-2.11,5.26c-5,9.64-10,19.25-14.75,29a380,380,0,0,0-23.7,62.63c-4.14,14.85-6.67,29.88-6,45.42a82.67,82.67,0,0,0,4.63,24.39c7.49,21,21.14,36.22,42.79,43.36a36,36,0,0,0,7.46,1.62,110.43,110.43,0,0,0,30.6-1,242.6,242.6,0,0,0,44.26-12.21c27.62-10.6,53.19-24.93,77.29-42a434,434,0,0,0,80.25-73.86c3.31-3.89,6.63-7.77,10.07-11.54.77-.85,2.19-.61,3.42.18a4.32,4.32,0,0,1,1.36,1.33c8.58,13.47,17,27,25.74,40.41a119.81,119.81,0,0,1,12.52,25.79,35,35,0,0,1,1.83,13.22,14.21,14.21,0,0,1-3.45,8.72,27.45,27.45,0,0,1-14.35,9.05,41.2,41.2,0,0,1-26.33-1.58c-1.19-.46-2.25-1.22-3.44-1.68-7-2.75-13.74-1.84-20.22,1.92-9.51,5.52-17.42,12.9-24.7,21a14.15,14.15,0,0,0-1.13,1.54c-3.92,5.68-6.38,15.2,2.39,22.27a45,45,0,0,0,4.64,3.37c10.9,6.77,22.68,8.25,35,5.44a91.31,91.31,0,0,0,12.87-3.79,272.4,272.4,0,0,0,57.46-30.39,60.66,60.66,0,0,0,21.17-26.67,44.59,44.59,0,0,0,3.73-20.57,75.32,75.32,0,0,0-4.93-22.39c-2.09-5.37-4.44-10.59-6.95-15.75a219.74,219.74,0,0,0-16.65-28c-3.26-4.74-6.63-9.42-9.75-14.25a101.48,101.48,0,0,1-11.17-22.19,53.65,53.65,0,0,1-1.75-28.36,27.48,27.48,0,0,1,2-5.35c4.14-9.6,10.75-17.35,18.38-24.28a134.12,134.12,0,0,1,42.3-25.81c11.39-4.41,23-7.75,35.32-8.1,2.56-.08,5.11-.25,7.67-.34a48.66,48.66,0,0,0,15-3.14C5439.08,2005.45,5444.52,2000.27,5442.27,1991.3Zm-391,115.32a18.53,18.53,0,0,1,.81-3.71,320.33,320.33,0,0,1,36.05-63.1,113.75,113.75,0,0,1,18.08-19.76,31.81,31.81,0,0,1,11.75-6.26,8.76,8.76,0,0,1,3.75-.52c4.46.76,8.64,2.28,12,5.46a30,30,0,0,1,9.36,18.39c2.18,15.47-2.24,29.06-11.59,41.25-10.84,14.12-25,23.6-41.69,29.4-7.87,2.73-15.95,4.71-21.43,4.42-6.8-.08-10.64.25-14.35-1.12C5052.86,2110.62,5051,2108,5051.3,2106.62Z"/><path class="cls-2" d="M2741.26,1984.65a33.68,33.68,0,0,0-17.35-11.34,80.59,80.59,0,0,0-20.79-3.06c-10.37-.13-20.37,2-30.15,5a145.73,145.73,0,0,0-49.06,25.43,177.22,177.22,0,0,0-38.76,42.18,121.47,121.47,0,0,0-11.57,22c-4.53,11.47-7.1,23.2-5.39,35.59.26,1.9.59,3.79.92,5.67a7.88,7.88,0,0,1-2.34,7c-4.85,5.09-9.77,10.12-14.8,15a578.67,578.67,0,0,1-64.14,54.72,375.76,375.76,0,0,1-42.06,26.67c-14.65,7.9-29.77,14.7-45.78,19.34-12.31,3.57-24.75,6.28-37.72,5.81a43.14,43.14,0,0,1-16.68-3.81,28.87,28.87,0,0,1-15.37-16.34,54.07,54.07,0,0,1-3.21-28.27c.91-5.68,1.58-11.43,3-17,2.07-8,3.95-16.15,8.05-23.49,1-1.78,4.52-2.53,6.62-1.29,1.66,1,3.34,1.9,4.94,3a23,23,0,0,0,10.8,3.6,94.56,94.56,0,0,0,30.47-2.26,121.55,121.55,0,0,0,41.65-18.86,171.18,171.18,0,0,0,31.2-28.24c17-19.45,28.68-50.71,26.88-75.94a45.4,45.4,0,0,0-5.27-18.25,31.65,31.65,0,0,0-16.7-15.12c-3.57-1.41-7.13-2.84-11-3.07-6.7-.38-10.33-4.34-12.17-10.4-.19-.61-.37-1.23-.61-1.82-2.77-6.52-8-9.78-14.76-10.66a24.62,24.62,0,0,0-11.31,1.37,71.82,71.82,0,0,0-20,11.22,180.18,180.18,0,0,0-22.62,20.68c-21,22.55-39.47,47-53.88,74.28-5.06,9.6-10.07,19.25-14.58,29.12-9,19.76-16.93,40-22.33,61.08-3.13,12.27-6.17,24.59-5.66,40.55h0c0,.15,0,1.55,0,3a82.78,82.78,0,0,0,11.3,38.2,62.9,62.9,0,0,0,24.23,24c6.19,3.43,12.61,6.3,19.74,6.88a126.14,126.14,0,0,0,34.35-1.82,259.15,259.15,0,0,0,59.85-19.77,372.63,372.63,0,0,0,68.67-41.69,436.93,436.93,0,0,0,70.6-67.41c2.87-3.41,5.92-6.68,8.88-10l3.56.33c10.32,16.13,20.73,32.21,30.92,48.43,3,4.86,5.13,10.26,7.24,15.62a44,44,0,0,1,2.88,15,15.83,15.83,0,0,1-6.18,13.39,32.41,32.41,0,0,1-13.65,6.56,41,41,0,0,1-20.83-.95c-2.42-.72-4.66-2.06-7.05-2.93-7.06-2.56-13.7-1.6-20.19,2.18-9.52,5.54-17.36,13-24.63,21.1a24.2,24.2,0,0,0-3,4.85,14.71,14.71,0,0,0,1.9,16.13,30.58,30.58,0,0,0,8.95,7.13c11.23,5.88,23,7.33,35.28,3.73,4.29-1.26,8.6-2.49,12.77-4.08a257.91,257.91,0,0,0,52.52-27.44c2.12-1.42,4.15-3,6.2-4.51a50.33,50.33,0,0,0,10.61-11,63.4,63.4,0,0,0,10.77-24.35,34,34,0,0,0,.33-13.32,121.17,121.17,0,0,0-11.75-34.3,237.63,237.63,0,0,0-16.73-27.93q-5-7-9.68-14.28a106.72,106.72,0,0,1-11.18-22.17,53.53,53.53,0,0,1-2.68-24.52,23.74,23.74,0,0,1,1.38-5.55,57.5,57.5,0,0,1,8.12-15.15,97.92,97.92,0,0,1,14.51-15.26,136.05,136.05,0,0,1,39.4-23.29c11.37-4.43,23-7.78,35.29-8.15,3.2-.1,6.4-.22,9.58-.49a43.87,43.87,0,0,0,14.84-3.63c4.11-1.9,7.49-4.94,8-10A16.13,16.13,0,0,0,2741.26,1984.65ZM2354,2104.19a314.05,314.05,0,0,1,38-66.38,99.8,99.8,0,0,1,14.16-15.6,61.74,61.74,0,0,1,7.65-5.73c7.44-4.68,16.36-3.58,22.77,2.64a28.52,28.52,0,0,1,8.3,14.81,54.6,54.6,0,0,1-.25,22.84,30.9,30.9,0,0,1-1.66,5.48,69.26,69.26,0,0,1-9.43,16.6c-13.67,17.33-31.71,27.45-53,32.14-4.34,1-8.89.94-11.57,1.2-5.6-.05-9.45.26-13.09-1.38a3.13,3.13,0,0,1-2.1-2.89A9.25,9.25,0,0,1,2354,2104.19Z"/><path class="cls-2" d="M4259.06,2276.64c-10.8-.71-19.73-1.28-28.66-1.88-5.74-.39-11.47-.92-17.21-1.22a105.1,105.1,0,0,1-20.86-2.75,75.37,75.37,0,0,0-13.28-1.67,28.5,28.5,0,0,0-14.89,2.76c-4.59,2.23-9.38,4-14,6.14-3.91,1.78-7.52.7-11-1a10.11,10.11,0,0,1-5.26-5.33c-3.46-8.93-7.08-17.79-10.79-26.61a16.71,16.71,0,0,1,.33-13.12c3.69-8.62,9.54-15,19.08-17.31a23.07,23.07,0,0,0,3.63-1.21,12.05,12.05,0,0,0,5.79-4.85,108.84,108.84,0,0,0,5.23-10.2c5.61-12.19,10.16-24.8,14.79-37.38,13.65-37.16,25.84-74.81,37.76-112.54q15.27-48.39,29.41-97.12a77.23,77.23,0,0,0,3.3-16.88c.06-1-2.23-4.16-3.3-4.42-3.71-.89-7.43-1.73-11.12-2.7a28.08,28.08,0,0,1-11.7-6.26,8.54,8.54,0,0,1-1.45-10.48,18.57,18.57,0,0,1,2.48-2.84c2.81-2.76,6.47-4.11,10-5.65,4.07-1.8,8.33-3.19,12.52-4.76a63.26,63.26,0,0,0,26.29-18.62c2.07-2.43,3.92-5.07,6.13-7.36a17,17,0,0,1,11.79-5.61,25.3,25.3,0,0,1,14.63,3.58c7.91,4.8,13.87,11.15,17.11,20a16.19,16.19,0,0,1,.43,11.24c-1.48,4.21-3,8.43-5.62,12.13-1.87,2.58-3.5,5.34-5.16,8.07a91.53,91.53,0,0,0-7.76,17.46c-7,19.87-14.22,39.65-21,59.58-11.57,33.82-23.61,67.47-35.89,101-8.77,24-17,48.15-26.42,71.88-4.47,11.27-9,22.54-13.57,33.75a45.33,45.33,0,0,0-2.9,9.11c-.11.62,0,1.27-.12,1.9-.37,2.55,2.08,7.06,4.5,7.78s4.7,2.15,7.16,2.7c17.45,3.94,34.91,7.84,52.83,9,3.19.22,6.39.41,9.55.86,19.07,2.69,38.27,2.9,57.42,2.12,29.64-1.21,58.25-7.27,85-20.54,5.72-2.83,11-6.4,17.07-8.66a4.29,4.29,0,0,1,5.45,3.67,13.32,13.32,0,0,1-.21,3.74,12.2,12.2,0,0,1-1.57,3.47,43,43,0,0,1-7.36,8.8,167.36,167.36,0,0,1-22.68,17.6,178.57,178.57,0,0,1-52.51,22.75,233.57,233.57,0,0,1-60.65,7.87C4280.22,2276.57,4268.71,2276.64,4259.06,2276.64Z"/><path class="cls-2" d="M4613.3,1804c2.54.25,5.07.44,7.58.78a19.75,19.75,0,0,1,7.07,2.68c6.83,3.85,9.74,9.81,9,17.44a88.15,88.15,0,0,1-2.31,13.09,89.06,89.06,0,0,0-2.35,15c-.93,12-1.89,24.06-1.26,36.14a21.93,21.93,0,0,1-.85,7.5c-.67,2.21-3.3,4.5-5.43,4.68a18,18,0,0,1-9.28-1.45,46.53,46.53,0,0,1-14-9.73,40.9,40.9,0,0,1-10.7-19.87,149.45,149.45,0,0,1-3.72-26.36,76.84,76.84,0,0,1,3.73-26.24,21.37,21.37,0,0,1,3.65-6.62,16,16,0,0,1,11.21-6.5C4608.23,1804.3,4610.76,1804.16,4613.3,1804Z"/><path class="cls-2" d="M3228.48,1841.54c-.5-8,1.23-16.13,3.76-24.08a18.83,18.83,0,0,1,8-10.43,16.66,16.66,0,0,1,5.26-2.14,43.48,43.48,0,0,1,17.16,0,20.19,20.19,0,0,1,12.71,8,15.31,15.31,0,0,1,2.29,5.18,20.17,20.17,0,0,1,.67,5.68,35.17,35.17,0,0,1-.88,7.61c-4.84,18.78-5.34,37.92-5.09,57.14a60.93,60.93,0,0,1-.58,7.62c-.31,2.69-4.14,5.57-7,5.44a20.59,20.59,0,0,1-9.26-2.16,56.28,56.28,0,0,1-11-7.58,40.73,40.73,0,0,1-12.28-21.29C3230.1,1861.13,3228.46,1851.64,3228.48,1841.54Z"/><path class="cls-2" d="M3108.83,2173.56c.91-3.43,2-4.32,4.39-3.49,1.22.43,1.4,1.49.46,2.59-.33.38-1.06.42-1.6.62l-1.6.47Z"/><path class="cls-2" d="M2208.46,564.13q165,0,330,0c7,0,14.07.21,21.09.51a37.61,37.61,0,0,1,12.93,3.3,60.93,60.93,0,0,1,24.22,18.29,78.19,78.19,0,0,1,12.47,21.48c4.52,12,7.85,24.33,8.3,37.25.23,6.39.38,12.79.38,19.18q0,226.4,0,452.77c0,4.47-.15,8.94-.31,13.41-.11,3.26-2.77,5.56-6.42,5.7-1.27,0-2.55.14-3.83.16-1.92,0-3.83,0-5.75,0H2469.15c-3.18,0-6.44.25-9.44-1a5.19,5.19,0,0,1-2.49-2.72c-1.13-3-.88-6.29-.88-9.48q0-47,0-94,.13-118,.32-236,.08-51.79.14-103.6,0-7.66-.62-15.31c-.5-6-6.78-12.1-12.69-12.61-1.91-.17-3.83-.37-5.74-.37q-51.79,0-103.6,0c-1.28,0-2.55.19-3.83.24-3,.13-5.74,3.06-5.88,6.31-.09,1.91-.19,3.83-.2,5.75,0,5.75,0,11.51,0,17.27q0,210.07,0,420.15c0,6.39-.23,12.77-.43,19.16-.1,3.07-3.14,5.88-6.27,6-1.28,0-2.56.12-3.83.15s-2.56,0-3.84,0q-70,0-140.06,0a58.3,58.3,0,0,1-9.52-.76c-1-.18-2.09-1.5-2.67-2.56a8,8,0,0,1-.85-3.7c-.12-6.39-.16-12.79-.16-19.18q0-207.19,0-414.4c0-6.39,0-12.79-.27-19.18-.26-6.75-6.53-13.18-13.6-14a80.26,80.26,0,0,0-9.55-.58c-16.63-.06-33.26,0-49.88,0-16,0-32,0-48,.05-2.54,0-5.07.42-7.61.68-1.34.14-3.66,2.49-3.86,3.82a29,29,0,0,0-.6,3.77q-.15,9.58-.14,19.18,0,211,0,422.08c0,6.38-.2,12.77-.36,19.16-.06,2.31-2.65,5.14-4.66,5.3-1.28.1-2.55.31-3.82.35-2.56.07-5.11.07-7.67.07q-69.07,0-138.14,0c-3.83,0-7.72.37-11.41-.83a5.46,5.46,0,0,1-2.63-2.61,8.46,8.46,0,0,1-.82-3.71c-.13-5.11-.16-10.23-.16-15.34q0-263.81,0-527.6c0-5.75.27-11.49.44-17.24,0-1.47,2.21-3.86,3.55-4a54.8,54.8,0,0,1,5.69-.67c5.75-.1,11.51-.07,17.26-.07Z"/><path class="cls-2" d="M1118.88,1136.24q-94,0-188,0c-5.1,0-10.21-.18-15.32-.33-3.07-.1-5.67-3-5.79-6.39,0-.64-.06-1.28-.06-1.92q0-43.15,0-86.31a33.07,33.07,0,0,1,.5-3.79c.14-1.21,2.66-3.57,4-3.64,3.82-.2,7.64-.57,11.46-.57q50.84-.08,101.67,0,53.7,0,107.41,0c5.76,0,11.51-.13,17.26-.28a27.31,27.31,0,0,0,11-3.09,17.8,17.8,0,0,0,10.58-14.9,34.78,34.78,0,0,0-1.07-13.3,116.3,116.3,0,0,0-11.8-28.19q-33.51-57-66.7-114.23Q992.66,685.33,891.28,511.42a224.76,224.76,0,0,1-22.35-52.8c-3.63-13-6.19-26.13-5.36-39.71,1.08-17.71,6.59-33.77,18-47.58a112.5,112.5,0,0,1,24.14-21.74,191.08,191.08,0,0,1,37.41-19.28c3-1.17,6-2.28,8.92-3.5a37.39,37.39,0,0,1,16.79-3.2c2.55.15,5.11,0,7.67,0q164,0,328,0c5.11,0,10.21.33,15.31.53,1.17.05,3.59,2.68,3.71,3.94s.53,2.51.54,3.77q0,44.12,0,88.23c0,1.27-.3,2.54-.43,3.81-.1,1-2.9,3.41-4,3.64-4.43.92-8.91.62-13.37.62q-48.91,0-97.83,0c-18.54,0-37.09.07-55.63,0a87.89,87.89,0,0,0-19,2.28,30.25,30.25,0,0,0-10.48,4.59c-6.13,4.11-10,9.83-10.71,17.32a107.37,107.37,0,0,0-.13,11.49,30,30,0,0,0,4.23,14.57c9.5,16.64,18.93,33.33,28.45,50q73.27,128.15,146.58,256.27,55.18,96.54,110.32,193.1c2.53,4.44,5.1,8.86,7.52,13.36a22.75,22.75,0,0,1,2,5.35,163.31,163.31,0,0,1,4,51.42c-1.71,20.24-8.4,38.59-22.22,54a91.52,91.52,0,0,1-20.79,16.81c-10.45,6.39-21.77,10.69-33.48,14a94.09,94.09,0,0,1-26.45,3.63C1248,1136.15,1183.46,1136.24,1118.88,1136.24Z"/><path class="cls-2" d="M3241.67,732.25q0-188,0-375.95c0-6.38.24-12.77.42-19.15.06-2,3-5.09,4.82-5.24,1.28-.1,2.55-.29,3.82-.33,2.56-.07,5.11-.07,7.67-.07q67.14,0,134.27,0c3.19,0,6.37.33,9.55.5,2.18.12,4.56,2.81,4.68,5.25.1,1.91.32,3.81.34,5.72.06,5.12,0,10.23,0,15.35q0,94,0,188c0,4.45-.4,8.93.68,13.35.27,1.13,2.68,3.9,3.77,4,3.82.18,7.65.48,11.48.49q45.08.06,90.15,0h99.75c4.47,0,8.95.06,13.42,0a69.31,69.31,0,0,1,26.15,5.29,98,98,0,0,1,37.63,25.77,58.23,58.23,0,0,1,8.83,12.49c2.93,5.75,5,11.76,5,18.32,0,4.48.09,9,.09,13.43q0,237.84,0,475.69c0,5.72.65,11.51-.87,17.16a4,4,0,0,1-2.4,2.75,11.57,11.57,0,0,1-3.6,1c-3.19.18-6.39.21-9.58.21q-65.22,0-130.44,0c-3.19,0-6.38-.18-9.58-.29-3-.11-5.7-3-5.82-6.32-.07-1.92-.14-3.84-.15-5.76q0-8.62,0-17.26,0-204.27,0-408.55c0-6.4,0-12.79-.22-19.18-.2-5.57-3.35-9.58-7.8-12.5a27.93,27.93,0,0,0-14.43-4.64c-1.27,0-2.55-.09-3.83-.09q-48.92,0-97.83,0c-1.91,0-3.82.28-5.73.42-1.18.08-3.74,2.56-3.89,3.77a35.36,35.36,0,0,0-.63,3.75q-.15,9.58-.14,19.18,0,212,0,423.9c0,6.37.55,12.78-.63,19.12-.25,1.39-2.44,3.61-3.85,3.8-.63.08-1.24.37-1.87.4-2.55.12-5.11.23-7.66.23q-68.1,0-136.19,0c-3.19,0-6.39-.2-9.58-.33-2.36-.1-5-2.52-5.21-4.75-.19-1.9-.52-3.79-.55-5.69-.08-5.76-.06-11.51-.06-17.27Z"/><path class="cls-2" d="M2706.83,947.44q0-178.41,0-356.83c0-6.39.05-12.79.23-19.18.14-4.82,2.69-6.58,7.45-6.72,5.11-.15,10.23-.13,15.35-.13h330c5.75,0,11.51-.06,17.26.14,20.68.73,38.6,8.44,53.66,22.4a67.16,67.16,0,0,1,21,37.93,92.23,92.23,0,0,1,2,19c-.09,3.84,0,7.68,0,11.51v402.88c0,4.48-.14,9,0,13.43a95.78,95.78,0,0,1-3.21,26.59c-4.57,18.28-16,30.07-34.54,34.8-9.38,2.39-18.87,3-28.51,3q-102.64-.15-205.29,0c-5.74,0-11.47.3-17.21.52-2.25.09-4.64,2.76-4.76,5.13-.1,1.91-.31,3.83-.32,5.74,0,5.75,0,11.51,0,17.26q0,75.78,0,151.56c0,3.82.36,7.67-.79,11.43-.36,1.2-2.71,3.53-4,3.63-1.91.14-3.82.4-5.73.41q-66.2,0-132.38,0a44,44,0,0,1-5.68-.7c-1.22-.16-3.5-2.63-3.68-4a52.5,52.5,0,0,1-.67-5.69c-.1-5.76-.07-11.51-.07-17.27Z"/><path class="cls-2" d="M4403.12,850.26q0-130.47,0-260.93c0-6.38.27-12.77.47-19.15.07-2.32,2.65-4.75,5.08-4.83,5.1-.17,10.21-.37,15.31-.38q95.94,0,191.87,0h168.84c5.11,0,10.23,0,15.34,0,17.48.21,32.31,7,45,18.69,12,11.13,19.75,25.06,24.69,40.49,3.12,9.75,5.36,19.75,4.83,30.15-.13,2.55,0,5.11,0,7.67q0,227.36,0,454.7c0,5.1-.29,10.2-.49,15.31-.08,2.2-2.72,4.45-5.24,4.55-3.19.12-6.38.31-9.57.31q-69.07,0-138.14,0c-3.18,0-6.36-.33-9.54-.52-2.15-.12-4.46-2.84-4.57-5.32-.09-1.92-.32-3.83-.33-5.74,0-5.75,0-11.51,0-17.26q0-203.37,0-406.73c0-6.4,0-12.8-.21-19.19a48.83,48.83,0,0,0-1.22-9.48,12,12,0,0,0-7.24-8.35,27.52,27.52,0,0,0-9.23-2.41q-3.83-.29-7.67-.28-48.93,0-97.85,0c-1.91,0-3.81.26-5.72.36-2.39.14-5.06,2.57-5.15,4.79-.18,4.47-.49,8.93-.5,13.39q-.12,59.48-.17,119-.18,156.36-.36,312.72c0,6.39-.17,12.78-.33,19.17-.08,3.28-2.69,5.6-6.28,5.74-1.28,0-2.56.13-3.83.15-1.92,0-3.84,0-5.76,0q-68.11,0-136.22,0c-3.82,0-7.66.36-11.44-.69-1.24-.34-3.58-2.6-3.71-4-.17-1.9-.49-3.81-.5-5.71-.07-9-.05-17.91-.05-26.86Q4403.12,975,4403.12,850.26Z"/><circle class="cls-2" cx="4052.65" cy="852.67" r="288.51"/><path class="cls-2" d="M1765.41,948.5q0,178.37,0,356.73c0,6.39,0,12.78-.18,19.17-.12,3.93-2.24,6.65-7.54,6.74-1.91,0-3.83.09-5.75.09q-71.92,0-143.85,0c-3.18,0-6.38.2-9.51-.76-1.3-.4-3.57-2.54-3.79-3.93a29.17,29.17,0,0,1-.62-3.76q-.15-8.62-.14-17.26,0-66.16,0-132.33c0-4.48-.09-9,0-13.43a34,34,0,0,0-4.67-18.25c-13.72-23.81-27.08-47.82-40.61-71.72Q1477.91,944.68,1407,819.6q-61.41-108.42-122.81-216.83c-6.29-11.11-13-22-18.5-33.54-.7-1.46.85-4.26,2.41-4.29.63,0,1.25-.29,1.87-.3q44.12-.23,88.22-.4a12.63,12.63,0,0,1,3.78.5,8.63,8.63,0,0,1,3.26,1.74c2.83,2.69,4.33,6.29,6.2,9.63q47.13,84.54,94.28,169.09,58.32,104.65,116.62,209.31c2.17,3.89,3.93,8.07,7.12,11.32.31.31,1.11.24,1.66.19s1.53-.16,1.68-.52a10.17,10.17,0,0,0,1-3.66c.15-6.39.2-12.79.2-19.18q0-177.4,0-354.81c0-6.38.33-12.76.52-19.15,0-1.1,2.74-3.72,3.9-3.84.62-.06,1.21-.45,1.82-.49,1.91-.13,3.83-.22,5.75-.22q72.88,0,145.76,0c3.18,0,6.36.41,9.54.66,1.34.11,3.55,2.53,3.61,3.95.18,3.83.45,7.66.46,11.48q.06,29.73,0,59.46Z"/><path class="cls-2" d="M5411.7,947.77q0,178.43,0,356.85c0,6.39-.15,12.78-.28,19.17a6.34,6.34,0,0,1-6.2,5.89c-1.27,0-2.55.16-3.83.16q-75.78,0-151.57,0c-1.27,0-2.55-.19-3.83-.23-1.88,0-5.15-3.13-5.2-5-.14-5.11-.41-10.22-.42-15.33q0-71,0-142c0-5.11.08-10.24-.28-15.34a22.68,22.68,0,0,0-2-7.32,94.07,94.07,0,0,0-4.61-8.4q-88.47-155.94-177-311.87-69.06-121.74-138.07-243.53c-2.2-3.88-4.15-7.9-6.19-11.87-.67-1.3,1.19-4,2.74-4.12,1.91-.09,3.82-.29,5.72-.29q39.34,0,78.67,0a59.11,59.11,0,0,1,7.65.34c1.84.23,3.77.58,4.89,2.51,2.59,4.4,5.39,8.68,7.89,13.14q48.32,86.11,96.57,172.28,54.85,97.85,109.78,195.65c3.13,5.56,5.82,11.4,9.83,16.43.27.33,1.1.32,1.66.28s1.47-.17,1.61-.51a10.44,10.44,0,0,0,1-3.67c.15-6.39.2-12.79.2-19.18q0-176.5,0-353c0-6.39.23-12.78.4-19.17.06-2.14,2.85-5,4.9-5.13.63,0,1.25-.21,1.88-.25,1.28-.07,2.56-.14,3.83-.14q74.84,0,149.66,0a29.08,29.08,0,0,1,7.55,1c1,.27,2,1.67,2.47,2.78a9.61,9.61,0,0,1,.54,3.77q.12,9.59.11,19.18Z"/><path class="cls-3" d="M3899.23,618.72c2.89,5,5.72,10,8.69,14.88,9.92,16.46,20.94,32.11,33.95,46.31,9.1,9.93,18.89,19.11,30,26.71,5.79,4,12,7.32,17.92,11a5.8,5.8,0,0,1,2.63,4.82c.08,2.55-.17,5.11-.34,7.65a300.31,300.31,0,0,0-.48,32.59,124.3,124.3,0,0,0,7.57,37.43c7.75,21.31,21.67,37.39,41.77,48,2.82,1.49,5.75,2.78,8.66,4.1a14.81,14.81,0,0,1,5.84,4.82q5.13,6.93,10.17,13.93a6.87,6.87,0,0,1,.59,7.19c-2,4.69-3.9,9.42-5.78,14.16-1,2.46.13,5.57,2.25,6.47,4.11,1.74,8.27,3.38,12.36,5.17a6.74,6.74,0,0,1,4.31,5.84c.24,4.46.07,8.94.05,13.41a5.7,5.7,0,0,1-.24,1.9,10.17,10.17,0,0,1-1.67,3.32,31.26,31.26,0,0,1-4.48,3.6q-37.55,26.58-75.12,53.14a19.89,19.89,0,0,1-3.26,2c-2.34,1-4.7,1.9-7.34.78-4.1-1.75-8.32-3.27-12.4-5.08q-26.25-11.65-52.43-23.48c-1.65-.75-3-2.28-4.32-3.58a2.17,2.17,0,0,1-.45-1.79c.11-.39.9-.72,1.44-.83,14.34-3.17,28.76-5.91,43.22-8.49q13.2-2.36,26.34-5c1.09-.22,2-1.39,2.91-2.24,1.42-1.38.61-2.51-2.58-3.62-.6-.21-1.24-.33-1.84-.53a498.79,498.79,0,0,1-48-19.14,381.17,381.17,0,0,1-52-28.62c-9.54-6.38-19.24-12.62-27.05-21.22-.3-.33-.21-1.14-.09-1.68s.5-1.49.8-1.51c4.46-.19,8.93-.26,13.39-.37,7.65-.19,15.33.05,22.94-1.1a23.89,23.89,0,0,0,.86-3.48,2.35,2.35,0,0,0-.83-1.68c-8.24-7.08-16.61-14-24.78-21.18a381.19,381.19,0,0,1-41.55-42.45,278.59,278.59,0,0,1-33.81-51,49.27,49.27,0,0,1-2-5.36c-.19-1.23,0-2.71-.62-3.65-7.11-10.84-10.92-23-14.25-35.33-2.15-8-3.7-16.14-5.74-24.17a62,62,0,0,1-1.63-20.84c.16-1.8,2.63-2.81,4.4-1.69,3.77,2.37,7.61,4.68,11.27,7.22a55.63,55.63,0,0,0,17.36,7.7,2.57,2.57,0,0,0,3.18-1.47c.25-.53.64-1.19.52-1.68-.94-3.7-1.92-7.38-3-11-3.1-10.38-6.18-20.75-7.51-31.57-.62-5-2.34-10-2.76-15-.64-7.62-.65-15.3-.78-23-.1-5.74,0-11.49.07-17.23.18-10.21.27-20.44,3.42-30.32,1.92-15.94,6.59-31.18,12.21-46.1a198.18,198.18,0,0,1,28.49-51.8c5.85-7.56,11.27-15.5,18.53-21.86a13.35,13.35,0,0,1,3.24-1.87,1.75,1.75,0,0,1,1.59.09,2.28,2.28,0,0,1,.6,1.77c-1.16,4.94-2.82,9.78-2.9,14.95a23.14,23.14,0,0,1-.66,5.7c-4.29,15.7-2.57,31.7-2.34,47.61,0,2.52.8,5,1.25,7.54s1.31,5,1.29,7.52c-.08,11,3.7,21.33,5.06,32.07.39,3.13,1.7,6.13,2.59,9.19,3.2,11,6,22.12,10.29,32.82s7.65,21.65,12.95,31.88c2.07,4,2.8,8.45,4.19,12.69C3896,616.48,3897.56,617.72,3899.23,618.72Z"/><path class="cls-3" d="M4333.42,803.3a200.76,200.76,0,0,1-45.32,31.77c-.94.48-1.51,1.86-2,2.93-.71,1.51.95,2.64,4,2.62,7.66-.06,15.32-.23,23-.27a43.32,43.32,0,0,1,5.68.44,2,2,0,0,1,1.24,1,2.6,2.6,0,0,1-.43,3.39,382.25,382.25,0,0,1-36.16,36.95,204.65,204.65,0,0,1-29.26,21.56,156.72,156.72,0,0,1-40.46,16.95c-3.07.84-6.28,1.15-9.43,1.69-6.28,1.06-12.57,2.1-18.84,3.2-.59.1-1.63.65-1.6.8.25,1.18.38,2.71,1.17,3.4,5.32,4.63,11.43,8.11,17.42,11.77A35.4,35.4,0,0,1,4207,945a2.74,2.74,0,0,1,.67,1.75A1.56,1.56,0,0,1,4207,948c-6.35,3.08-13.21,4.73-20,6.55-22.29,6-44.92,9.78-68.1,9.08-5.74-.18-11.47-.75-17.18-1.34s-11.4-1.49-17.11-2.14a82.63,82.63,0,0,1-18.66-4c-.32-.12-.5-.94-.54-1.46a2.8,2.8,0,0,1,.28-1.8,17.31,17.31,0,0,1,2.75-2.66q30.79-24.36,61.61-48.71a11.78,11.78,0,0,1,7-2.59c19.15-.82,38.3-1.57,57.44-2.39,1.9-.08,3.87-.07,5.55-1.17a2.51,2.51,0,0,0,1-3.1,36.87,36.87,0,0,0-3.88-4.12q-19.93-18-39.91-35.86c-.48-.43-.9-.92-1.38-1.33a15.73,15.73,0,0,0-10.39-4.19q-15.33,0-30.66-.21c-3.82,0-7.64-.39-11.46-.53-1.61-.07-2.45-.75-2.5-2.28,0-.58-.31-1.37,0-1.72q13-16.54,26.25-33a5.39,5.39,0,0,1,3.29-1.65,72.34,72.34,0,0,1,9.53-.57c21.14.24,42.12-1.86,63.07-4.2a258.85,258.85,0,0,0,41.26-8.3,357,357,0,0,0,79.43-32.66c.56-.31,1.08-.68,1.62-1a20.1,20.1,0,0,0,3.58-1.21c17.85-9.95,35.12-20.84,52.42-31.71a2.23,2.23,0,0,1,1.87-.11,2.48,2.48,0,0,1,1.3,3.13,88.46,88.46,0,0,1-3,9.08c-1.79,4.1-3.85,8.08-6,12-6.17,11.33-20.74,30.87-29.61,39.92a51.13,51.13,0,0,1-10.27,8.56C4334.61,800.85,4334.13,802.27,4333.42,803.3Z"/><path class="cls-2" d="M5418.37,461.92c.08-25.39,8.54-47.63,24.67-67,14-16.75,31.94-27.29,53-32.54,7.44-1.86,15.18-2.12,22.86-2.15,24.65-.13,46.32,7.94,65.07,23.91,15,12.77,25,28.78,31.09,47.43,3.63,11.11,4.39,22.49,4.34,34a96.39,96.39,0,0,1-10.88,44.21q-20.28,39.6-63.06,52.11a93.35,93.35,0,0,1-26.48,3.46c-35.32,0-62.6-15.39-82.79-43.85-8.24-11.62-13.27-24.78-15.95-38.69C5418.89,476,5418.94,468.91,5418.37,461.92Z"/><path class="cls-1" d="M2859.87,861.92q0-91,0-182c0-4.45-.36-8.93.66-13.35.28-1.24,2.53-3.78,3.73-4a26.08,26.08,0,0,1,3.76-.62c34.5-.1,69-.26,103.48-.17,7.34,0,13.5,3.36,18.46,8.81a13.36,13.36,0,0,1,3.77,8.56c.22,5.11.4,10.21.43,15.32q.43,78.57.85,157.13c.14,21.07.72,42.14.88,63.22q.47,60.36.64,120.72a127,127,0,0,1-.47,13.38,18.92,18.92,0,0,1-4.48,10.4,10.21,10.21,0,0,1-6.42,3.8,59.2,59.2,0,0,1-7.65.36q-52.7,0-105.4,0c-2.54,0-5.07-.37-7.61-.58-1.32-.11-3.81-2.42-4-3.64a32.79,32.79,0,0,1-.55-3.78c-.09-5.75-.12-11.5-.12-17.24Z"/><path class="cls-4" d="M4110.73,859.21c10.85,0,21.7,0,32.55,0a10.87,10.87,0,0,1,7.07,2.55q10.14,8.76,20,17.8c.76.7.78,2.29.9,3.5,0,.26-.95.73-1.53.92a17.66,17.66,0,0,1-3.65.94c-5.09.49-10.18.82-15.27,1.31-7.6.73-15.33-.08-22.81,2-6,4.72-12,9.49-18,14.15-5,3.86-9.44,8.56-15.24,11.35a2.09,2.09,0,0,1-3-1.17c-1.42-3.67-.26-7.6-1.17-11.33a6.09,6.09,0,0,0-2-3.14c-2.46-2.24-5.69-2.78-8.55-4.13a9.63,9.63,0,0,1-4.34-3.56c-.33-.54-.91-1.17-.83-1.68.59-3.83,2.33-7.27,3.84-10.78,1.61-3.74,1.71-7.35-1.13-10.71a14.53,14.53,0,0,1-1.73-3.35c-.62-1.37,1-4.13,2.47-4.27,1.88-.18,3.77-.54,5.66-.55,8.93-.06,17.87,0,26.81,0Z"/><path class="cls-1" d="M5519.86,550c-20.86.48-38.56-5.83-53.85-18.62-14.16-11.84-23.26-26.94-27.73-44.84A94.91,94.91,0,0,1,5435,461.9a93.48,93.48,0,0,1,9.86-40.59c10.84-21.77,28.05-36,51.29-43,6.17-1.87,12.56-2.25,18.94-2.53,19.85-.86,37.88,4.32,53.87,16.32,14.83,11.14,24.48,25.89,30.09,43.34a82.54,82.54,0,0,1,3.92,34.06c-3.56,33.57-19,59.12-50.53,73.54A72.93,72.93,0,0,1,5519.86,550Z"/><path class="cls-2" d="M5484.77,461.9c0-14,0-28.11,0-42.17,0-2.55.31-5.09.48-7.64.11-1.47,2.25-3.79,3.61-4a14.09,14.09,0,0,1,1.87-.38c12.14-.06,24.27-.14,36.41-.1a27.51,27.51,0,0,1,9.38,1.73,31.13,31.13,0,0,1,20.84,29.31c.05,4.5-.26,8.91-2.05,13.15-2.28,5.4-5.36,10.12-10.21,13.59-2.05,1.46-4.46,2.58-5.66,5a2.85,2.85,0,0,0-.36,1.73,15.52,15.52,0,0,0,1.22,3.59c5.17,10.26,10.42,20.49,15.58,30.76,1.14,2.27,2,4.69,3,7,.67,1.62-.78,4.19-2.45,4.26a54.19,54.19,0,0,1-7.64.11c-2.58-.25-5-1.28-6.29-3.77q-4.44-8.47-8.75-17c-2.88-5.7-5.65-11.45-8.55-17.14-3.06-6-4.54-6.79-12.23-6.86h-1.92c-8.71.05-10.38,1.54-10.46,9.62-.1,9.59,0,19.18-.27,28.75-.13,4-1.7,6.62-7.53,6.51a17.35,17.35,0,0,1-1.91,0c-.63-.09-1.23-.36-1.86-.47-1.54-.26-3.59-2.44-3.7-3.88-.19-2.54-.52-5.08-.53-7.62C5484.74,491.3,5484.77,476.6,5484.77,461.9Z"/><path class="cls-1" d="M5513.45,461.08l-8.72-.77c-1.37-.12-3.58-2.44-3.75-3.83a18,18,0,0,1-.34-1.87q.06-14.26.2-28.52c0-2.16,2.74-4.71,4.92-5.06a64.56,64.56,0,0,1,17.06-.24,32.68,32.68,0,0,1,7.33,1.95,14.08,14.08,0,0,1,8.23,7.46,35.56,35.56,0,0,1,2,5.32c2.68,9.1-2.54,20.1-11.25,23.64a20.57,20.57,0,0,1-5.48,1.46C5520.53,461,5517.35,460.93,5513.45,461.08Z"/></g></g></svg>